<?xml version="1.0" standalone="no"?><!DOCTYPE svg PUBLIC "-//W3C//DTD SVG 1.1//EN" "http://www.w3.org/Graphics/SVG/1.1/DTD/svg11.dtd"><svg t="1588084308423" class="icon" viewBox="0 0 1024 1024" version="1.1" xmlns="http://www.w3.org/2000/svg" p-id="2922" xmlns:xlink="http://www.w3.org/1999/xlink" width="200" height="200"><defs><style type="text/css"></style></defs><path d="M511.999317 0c-282.769437 0-511.999317 229.22988-511.999317 512s229.22988 512 511.999317 512c282.77012 0 512-229.22988 512-512S794.769437 0 511.999317 0zM511.999317 938.666553c-235.641084 0-426.666553-191.024786-426.666553-426.666553s191.024786-426.666553 426.666553-426.666553c235.641766 0 426.666553 191.024786 426.666553 426.666553S747.641084 938.666553 511.999317 938.666553z" p-id="2923"></path><path d="M810.6657 469.333276l-255.999659 0L554.666041 213.332935c0-23.564177-19.101864-42.666724-42.666724-42.666724-23.564177 0-42.666724 19.102547-42.666724 42.666724l0 255.999659-255.999659 0c-23.564177 0-42.666724 19.102547-42.666724 42.666724s19.102547 42.666724 42.666724 42.666724l255.999659 0L469.332594 810.666382c0 23.564177 19.102547 42.666724 42.666724 42.666724 23.564859 0 42.666724-19.102547 42.666724-42.666724L554.666041 554.666724l255.999659 0c23.564859 0 42.666724-19.102547 42.666724-42.666724S834.230559 469.333276 810.6657 469.333276z" p-id="2924"></path></svg>