<?xml version="1.0" standalone="no"?><!DOCTYPE svg PUBLIC "-//W3C//DTD SVG 1.1//EN" "http://www.w3.org/Graphics/SVG/1.1/DTD/svg11.dtd"><svg t="1588084403314" class="icon" viewBox="0 0 1024 1024" version="1.1" xmlns="http://www.w3.org/2000/svg" p-id="5661" xmlns:xlink="http://www.w3.org/1999/xlink" width="200" height="200"><defs><style type="text/css"></style></defs><path d="M799.186678 873.900088c0 34.327783-28.045574 62.373357-62.373356 62.373356H287.186678c-34.327783 0-62.373357-28.045574-62.373356-62.373356V211.575811h574.373356v662.324277zM349.560035 99.617879c0-7.179667 5.609115-12.788782 12.788782-12.788782h299.97546c7.179667 0 12.788782 5.609115 12.788782 12.788782v37.693252H349.560035V99.617879z m636.746713 37.468887H749.602103V99.617879c0-48.014023-39.263804-87.277826-87.277826-87.277826H362.348817c-48.014023 0-87.277826 39.263804-87.277827 87.277826v37.693252H37.693252C16.827344 137.086766 0 153.91411 0 174.780018c0 20.865907 16.827344 37.693252 37.693252 37.693251h111.957931v661.651183c0 76.059597 61.700263 137.535495 137.535495 137.535495h449.626644c76.059597 0 137.535495-61.700263 137.535495-137.535495V211.575811h111.957931c20.865907 0 37.693252-16.827344 37.693252-37.693252 0-20.641543-16.827344-36.795793-37.693252-36.795793z m-474.306748 686.555653c20.865907 0 37.693252-16.827344 37.693252-37.693252V385.907099c0-20.865907-16.827344-37.693252-37.693252-37.693251s-37.693252 16.827344-37.693252 37.693251v400.042068c0 20.865907 16.827344 37.693252 37.693252 37.693252m-175.228747 0c20.865907 0 37.693252-16.827344 37.693252-37.693252V385.907099c0-20.865907-16.827344-37.693252-37.693252-37.693251s-37.693252 16.827344-37.693251 37.693251v400.042068c0.897458 20.865907 17.724803 37.693252 37.693251 37.693252m350.457494 0c20.865907 0 37.693252-16.827344 37.693251-37.693252V385.907099c0-20.865907-16.827344-37.693252-37.693251-37.693251s-37.693252 16.827344-37.693252 37.693251v400.042068c0 20.865907 16.827344 37.693252 37.693252 37.693252" p-id="5662"></path></svg>