<?xml version="1.0" standalone="no"?><!DOCTYPE svg PUBLIC "-//W3C//DTD SVG 1.1//EN" "http://www.w3.org/Graphics/SVG/1.1/DTD/svg11.dtd"><svg t="1574318979034" class="icon" viewBox="0 0 1025 1024" version="1.1" xmlns="http://www.w3.org/2000/svg" p-id="1870" width="200.1953125" height="200" xmlns:xlink="http://www.w3.org/1999/xlink"><defs><style type="text/css"></style></defs><path d="M587.9282 671.516046S512.025484 732.356203 484.496002 748.323302a343.567941 343.567941 0 0 1-67.643871 29.771169 285.048127 285.048127 0 0 1-53.485852 12.191628c-15.337854 1.691097-27.922761 2.752948-38.147997 3.26421a7.472288 7.472288 0 0 1-3.539505 0.707901h-11.405071a284.654848 284.654848 0 0 1-74.329603-9.360024 188.537627 188.537627 0 0 1-60.564861-27.529482 129.191928 129.191928 0 0 1-55.845522-110.11793 108.505489 108.505489 0 0 1 17.304247-57.418635 153.024594 153.024594 0 0 1 42.474058-43.771877 205.723889 205.723889 0 0 1 58.205192-27.293515 195.970587 195.970587 0 0 1 64.104366-7.865567 374.400961 374.400961 0 0 1 60.95814 7.511616 561.798081 561.798081 0 0 1 56.632078 14.708609q26.546287 8.612795 50.732903 18.680721c16.124411 6.685731 31.462266 13.135496 45.620285 19.388621 5.899175 2.35967 11.79835 4.758668 18.090803 7.157665s12.584906 4.797996 19.270638 7.196994a410.425255 410.425255 0 0 0 35.00177-52.030722 503.39625 503.39625 0 0 0 23.989978-46.642809c5.899175-14.118692 11.011793-25.956369 14.158019-35.395049s5.505896-16.242395 6.685732-20.096522H320.892221v-34.451181h147.47937V317.290263h-204.504727v-34.451181h204.504727V218.223454a11.79835 11.79835 0 0 1 7.079009-10.382547 48.333906 48.333906 0 0 1 16.51769-5.387913 122.978131 122.978131 0 0 1 24.383256-2.163031h55.058965v82.588447h210.403901v34.451181h-210.403901v79.63886h167.143286a0.668573 0.668573 0 0 1 0.393278-0.707901v0.707901h-0.393278a403.149606 403.149606 0 0 1-16.910968 67.48656 495.845306 495.845306 0 0 1-29.889152 70.318163 501.193892 501.193892 0 0 1-51.912739 81.133318 1420.206671 1420.206671 0 0 0 338.612634 106.539097 511.93039 511.93039 0 1 0-44.44045 78.970287 1891.668721 1891.668721 0 0 1-346.084922-129.545879z m-401.930443-22.967453c-1.573113 87.740393 97.533023 94.386797 112.870878 94.701419a224.640577 224.640577 0 0 0 123.096114-36.417572 709.356107 709.356107 0 0 0 85.734674-69.413624c1.966392-1.691097 3.932783-3.460849 5.899175-5.387913-14.15802-7.629599-27.529482-14.708609-40.900946-21.158374a468.630447 468.630447 0 0 0-141.973473-49.277773c-114.443991-11.79835-143.939865 60.250239-144.726422 86.953837z m0 0" p-id="1871"></path></svg>