<?xml version="1.0" standalone="no"?><!DOCTYPE svg PUBLIC "-//W3C//DTD SVG 1.1//EN" "http://www.w3.org/Graphics/SVG/1.1/DTD/svg11.dtd"><svg t="1574319529216" class="icon" viewBox="0 0 1024 1024" version="1.1" xmlns="http://www.w3.org/2000/svg" p-id="5095" xmlns:xlink="http://www.w3.org/1999/xlink" width="200" height="200"><defs><style type="text/css"></style></defs><path d="M139.946667 334.506667 139.946667 334.506667c-37.546667 0-64.853333 27.306667-64.853333 61.44l0 266.24c0 34.133333 27.306667 61.44 61.44 61.44l3.413333 0c34.133333 0 61.44-27.306667 61.44-61.44l0-266.24C201.386667 361.813333 174.08 334.506667 139.946667 334.506667zM228.693333 764.586667c0 30.72 23.893333 54.613333 54.613333 54.613333l61.44 0 0 143.36c0 34.133333 27.306667 61.44 61.44 61.44L409.6 1024c34.133333 0 61.44-27.306667 61.44-61.44L471.04 819.2l85.333333 0 0 143.36c0 34.133333 27.306667 61.44 61.44 61.44l3.413333 0c34.133333 0 61.44-27.306667 61.44-61.44L682.666667 819.2l61.44 0c30.72 0 54.613333-23.893333 54.613333-54.613333L798.72 344.746667 228.693333 344.746667 228.693333 764.586667zM651.946667 88.746667l47.786667-75.093333c3.413333-3.413333 0-10.24-3.413333-13.653333C692.906667 0 686.08 0 682.666667 3.413333l-47.786667 75.093333c-37.546667-13.653333-78.506667-23.893333-122.88-23.893333-44.373333 0-85.333333 6.826667-122.88 23.893333L341.333333 3.413333C337.92 0 331.093333 0 327.68 0 320.853333 3.413333 320.853333 10.24 324.266667 17.066667l47.786667 75.093333C286.72 129.706667 228.693333 211.626667 228.693333 300.373333c0 6.826667 0 10.24 0 17.066667l566.613333 0c0-6.826667 0-10.24 0-17.066667C795.306667 211.626667 737.28 129.706667 651.946667 88.746667zM378.88 221.866667c-13.653333 0-27.306667-13.653333-27.306667-27.306667 0-13.653333 13.653333-27.306667 27.306667-27.306667 13.653333 0 27.306667 13.653333 27.306667 27.306667C406.186667 208.213333 395.946667 221.866667 378.88 221.866667zM645.12 221.866667c-13.653333 0-27.306667-13.653333-27.306667-27.306667 0-13.653333 13.653333-27.306667 27.306667-27.306667 13.653333 0 27.306667 13.653333 27.306667 27.306667C672.426667 208.213333 658.773333 221.866667 645.12 221.866667zM887.466667 334.506667 887.466667 334.506667c-37.546667 0-64.853333 27.306667-64.853333 61.44l0 266.24c0 34.133333 27.306667 61.44 61.44 61.44L887.466667 723.626667c34.133333 0 61.44-27.306667 61.44-61.44l0-266.24C948.906667 361.813333 921.6 334.506667 887.466667 334.506667z" p-id="5096"></path></svg>