<?xml version="1.0" standalone="no"?><!DOCTYPE svg PUBLIC "-//W3C//DTD SVG 1.1//EN" "http://www.w3.org/Graphics/SVG/1.1/DTD/svg11.dtd"><svg t="1574319489719" class="icon" viewBox="0 0 1024 1024" version="1.1" xmlns="http://www.w3.org/2000/svg" p-id="4097" xmlns:xlink="http://www.w3.org/1999/xlink" width="200" height="200"><defs><style type="text/css"></style></defs><path d="M825.344 665.6c26.624 36.864 55.296 61.44 90.112 71.68-14.336 45.056-36.864 92.16-69.632 141.312-49.152 73.728-96.256 110.592-145.408 110.592-18.432 0-45.056-6.144-79.872-18.432-32.768-12.288-61.44-18.432-83.968-18.432-24.576 0-51.2 6.144-79.872 18.432-30.72 12.288-55.296 18.432-75.776 18.432-57.344 0-112.64-49.152-167.936-145.408-55.296-96.256-83.968-190.464-83.968-282.624 0-86.016 20.48-155.648 63.488-210.944 43.008-55.296 96.256-81.92 159.744-81.92 14.336 0 28.672 2.048 47.104 6.144 16.384 4.096 34.816 10.24 53.248 20.48 20.48 10.24 36.864 18.432 49.152 22.528 12.288 4.096 22.528 6.144 28.672 6.144 8.192 0 20.48-2.048 38.912-6.144 16.384-4.096 34.816-10.24 51.2-20.48 18.432-10.24 34.816-18.432 47.104-22.528 14.336-4.096 26.624-8.192 40.96-8.192 45.056 0 83.968 12.288 120.832 36.864 18.432 12.288 38.912 30.72 57.344 55.296-28.672 24.576-51.2 47.104-63.488 67.584-24.576 34.816-36.864 73.728-36.864 116.736C786.432 585.728 798.72 626.688 825.344 665.6L825.344 665.6zM634.88 219.136c-22.528 20.48-43.008 34.816-61.44 40.96-6.144 2.048-14.336 4.096-24.576 6.144-10.24 2.048-20.48 2.048-34.816 4.096 0-55.296 14.336-104.448 43.008-145.408 28.672-40.96 75.776-69.632 141.312-83.968 2.048 6.144 2.048 10.24 2.048 14.336l0 10.24c0 22.528-6.144 49.152-16.384 77.824C675.84 169.984 657.408 196.608 634.88 219.136L634.88 219.136z" p-id="4098"></path></svg>