<?xml version="1.0" standalone="no"?><!DOCTYPE svg PUBLIC "-//W3C//DTD SVG 1.1//EN" "http://www.w3.org/Graphics/SVG/1.1/DTD/svg11.dtd"><svg t="1576385774095" class="icon" viewBox="0 0 1024 1024" version="1.1" xmlns="http://www.w3.org/2000/svg" p-id="1940" xmlns:xlink="http://www.w3.org/1999/xlink" width="200" height="200"><defs><style type="text/css"></style></defs><path d="M512 11.378q102.036 0 194.651 39.641t159.653 106.678 106.678 159.653 39.641 194.651-39.641 194.651-106.678 159.653-159.653 106.678-194.651 39.641-194.651-39.641-159.653-106.678-106.678-159.653-39.641-194.651 39.641-194.651 106.678-159.653 159.653-106.678 194.651-39.641zM512 102.4q-83.195 0-159.107 32.541t-130.662 87.291-87.291 130.662-32.541 159.107 32.541 159.107 87.291 130.662 130.662 87.291 159.107 32.541 159.107-32.541 130.662-87.291 87.291-130.662 32.541-159.107-32.541-159.107-87.291-130.662-130.662-87.291-159.107-32.541zM512 193.422q18.842 0 32.176 13.334t13.334 32.176v254.225l123.38 123.017q13.153 13.153 13.153 32.358t-13.153 32.358-32.358 13.153-32.358-13.153l-136.533-136.533q-13.153-13.153-13.153-32.358v-273.067q0-18.842 13.334-32.176t32.176-13.334z" p-id="1941"></path></svg>