<?xml version="1.0" standalone="no"?><!DOCTYPE svg PUBLIC "-//W3C//DTD SVG 1.1//EN" "http://www.w3.org/Graphics/SVG/1.1/DTD/svg11.dtd"><svg t="1577517918331" class="icon" viewBox="0 0 1024 1024" version="1.1" xmlns="http://www.w3.org/2000/svg" p-id="5190" xmlns:xlink="http://www.w3.org/1999/xlink" width="200" height="200"><defs><style type="text/css"></style></defs><path d="M718.933333 305.066667c-8.533333-8.533333-25.6-8.533333-34.133333 0L512 477.866667l-170.666667-170.666667c-8.533333-8.533333-25.6-8.533333-34.133333 0s-8.533333 25.6 0 34.133333l170.666667 170.666667-170.666667 170.666667c-8.533333 8.533333-8.533333 25.6 0 34.133333s25.6 8.533333 34.133333 0l170.666667-170.666667 172.8 172.8c8.533333 8.533333 25.6 8.533333 34.133333 0s8.533333-25.6 0-34.133333L546.133333 512l172.8-172.8c8.533333-8.533333 8.533333-23.466667 0-34.133333z" fill="#333333" p-id="5191"></path><path d="M512 42.666667C251.733333 42.666667 42.666667 251.733333 42.666667 512s209.066667 469.333333 469.333333 469.333333 469.333333-209.066667 469.333333-469.333333S772.266667 42.666667 512 42.666667z m0 885.333333C281.6 928 96 742.4 96 512S281.6 96 512 96 928 281.6 928 512 742.4 928 512 928z" fill="#333333" p-id="5192"></path></svg>