<?xml version="1.0" standalone="no"?><!DOCTYPE svg PUBLIC "-//W3C//DTD SVG 1.1//EN" "http://www.w3.org/Graphics/SVG/1.1/DTD/svg11.dtd"><svg t="1599019261145" class="icon" viewBox="0 0 1024 1024" version="1.1" xmlns="http://www.w3.org/2000/svg" p-id="4278" width="200" height="200" xmlns:xlink="http://www.w3.org/1999/xlink"><defs><style type="text/css"></style></defs><path d="M0.00128 0h1024v1024H0.00128z" fill="#FFFFFF" p-id="4279"></path><path d="M512.00128 1024c-115.2 0-512-367.552-512-647.552V352a287.04 287.04 0 0 1 512-179.2 287.04 287.04 0 0 1 512 179.2c0 6.4 0 38.976-0.64 49.984C1010.68928 671.36 641.08928 1024 512.00128 1024zM288.00128 128A224 224 0 0 0 64.00128 352v24.448C64.00128 631.168 434.62528 960 512.00128 960c74.176 0 435.52-308.352 447.488-561.024C960.00128 388.672 960.00128 358.4 960.00128 352a223.168 223.168 0 0 0-419.904-106.24L512.00128 297.408l-28.096-51.648A223.552 223.552 0 0 0 288.00128 128z" p-id="4280"></path></svg>