<?xml version="1.0" standalone="no"?><!DOCTYPE svg PUBLIC "-//W3C//DTD SVG 1.1//EN" "http://www.w3.org/Graphics/SVG/1.1/DTD/svg11.dtd"><svg t="1576334968783" class="icon" viewBox="0 0 1024 1024" version="1.1" xmlns="http://www.w3.org/2000/svg" p-id="1861" xmlns:xlink="http://www.w3.org/1999/xlink" width="200" height="200"><defs><style type="text/css"></style></defs><path d="M512 32C246.90000031 32 32 246.90000031 32 512s214.90000031 480 480 480 480-214.90000031 480-480S777.09999969 32 512 32z m0 880.00000031C291.44 912.00000031 111.99999969 732.56 111.99999969 512S291.44 111.99999969 512 111.99999969s400.00000031 179.44000031 400.00000031 400.00000031-179.44000031 400.00000031-400.00000031 400.00000031z m0-680.00000062c-35.20000031 0-60 29.59999969-60 60s24.79999969 60 60 60c35.17999969 0 60-27.22000031 60-60 0-32.80000031-24.82000031-60-60-60z m-40.00000031 560.00000062h80.00000062V432.00000031h-80.00000062v360z" p-id="1862"></path></svg>