<?xml version="1.0" standalone="no"?><!DOCTYPE svg PUBLIC "-//W3C//DTD SVG 1.1//EN" "http://www.w3.org/Graphics/SVG/1.1/DTD/svg11.dtd"><svg t="1574319046661" class="icon" viewBox="0 0 1024 1024" version="1.1" xmlns="http://www.w3.org/2000/svg" p-id="2641" xmlns:xlink="http://www.w3.org/1999/xlink" width="200" height="200"><defs><style type="text/css"></style></defs><path d="M512 0C230.4 0 0 230.4 0 512s230.4 512 512 512 512-230.4 512-512S793.6 0 512 0z m198.4 624s-16 41.6-41.6 76.8c0 0 44.8 16 41.6 57.6 0 0 0 44.8-102.4 41.6 0 0-70.4-6.4-92.8-35.2h-16c-19.2 32-92.8 35.2-92.8 35.2-102.4 6.4-102.4-41.6-102.4-41.6-6.4-41.6 41.6-57.6 41.6-57.6-25.6-35.2-41.6-76.8-41.6-76.8-57.6 102.4-54.4-16-54.4-16 9.6-70.4 60.8-118.4 60.8-118.4-6.4-60.8 19.2-70.4 19.2-70.4C342.4 220.8 505.6 224 512 224c6.4 0 172.8-6.4 179.2 195.2 0 0 25.6 9.6 19.2 76.8 0 0 51.2 44.8 60.8 118.4-3.2-6.4 6.4 112-60.8 9.6z" p-id="2642"></path></svg>