<?xml version="1.0" standalone="no"?><!DOCTYPE svg PUBLIC "-//W3C//DTD SVG 1.1//EN" "http://www.w3.org/Graphics/SVG/1.1/DTD/svg11.dtd"><svg t="1577517985029" class="icon" viewBox="0 0 1025 1024" version="1.1" xmlns="http://www.w3.org/2000/svg" p-id="5912" xmlns:xlink="http://www.w3.org/1999/xlink" width="200.1953125" height="200"><defs><style type="text/css"></style></defs><path d="M512.403296 0.001503a511.097312 511.097312 0 1 0 360.774573 150.322739 508.992794 508.992794 0 0 0-360.774573-150.322739z m0 51.109731a464.797908 464.797908 0 0 1 172.87115 33.672294 468.105009 468.105009 0 0 1 253.143492 253.143492 462.392745 462.392745 0 0 1 0 346.042945 468.105009 468.105009 0 0 1-253.143492 253.143492 462.392745 462.392745 0 0 1-346.042945 0 468.105009 468.105009 0 0 1-253.143492-253.143492 462.392745 462.392745 0 0 1 0-346.042945 468.105009 468.105009 0 0 1 253.143492-253.143492A464.797908 464.797908 0 0 1 512.403296 51.41188z m0 0" fill="" p-id="5913"></path><path d="M512.403296 696.597075a39.083912 39.083912 0 1 0 0 78.167824 39.083912 39.083912 0 1 0 0-78.167824z m0-448.863698a166.557595 166.557595 0 0 0-116.049154 38.783266 168.962758 168.962758 0 0 0-53.21425 111.539473l66.442651 8.117427a131.081428 131.081428 0 0 1 35.776812-80.272342A93.801389 93.801389 0 0 1 512.403296 300.646981a100.41559 100.41559 0 0 1 72.154915 28.56132 87.788479 87.788479 0 0 1 28.56132 65.540714 76.965242 76.965242 0 0 1-9.620655 37.881331 223.37959 223.37959 0 0 1-42.992304 46.600049 495.764393 495.764393 0 0 0-46.600049 44.49553 156.636294 156.636294 0 0 0-24.953574 41.489076 175.276313 175.276313 0 0 0-9.620655 66.142005v19.842602h60.129095a283.20804 283.20804 0 0 1 5.110973-55.619414 99.513653 99.513653 0 0 1 14.731629-30.064547A294.331923 294.331923 0 0 1 602.596939 522.823989a327.402925 327.402925 0 0 0 62.834905-70.050396 132.28401 132.28401 0 0 0-30.064548-163.55114A172.570504 172.570504 0 0 0 512.403296 247.733377z m0 0" fill="" p-id="5914"></path></svg>