<?xml version="1.0" standalone="no"?><!DOCTYPE svg PUBLIC "-//W3C//DTD SVG 1.1//EN" "http://www.w3.org/Graphics/SVG/1.1/DTD/svg11.dtd"><svg t="1576662030985" class="icon" viewBox="0 0 1024 1024" version="1.1" xmlns="http://www.w3.org/2000/svg" p-id="3413" xmlns:xlink="http://www.w3.org/1999/xlink" width="200" height="200"><defs><style type="text/css"></style></defs><path d="M36.693333 236.202667l-0.768 3.328-30.293333 133.717333-4.48 33.621333c0 8.576 1.792 16 5.376 22.272 11.52 20.053333 45.653333 22.997333 65.066667 22.997334 25.813333 0 49.578667-5.504 65.194666-15.104 27.605333-16.213333 34.901333-42.154667 41.301334-64.938667l3.2-12.117333c1.024-4.266667 24.277333-97.92 31.573333-123.733334-25.301333 0.213333-37.12 0-43.093333-0.426666-1.792 7.936-5.376 24.96-9.6 43.733333-11.349333 52.181333-15.445333 71.210667-18.005334 78.250667l0.853334 0.256c-5.461333 24.149333-9.813333 43.178667-25.002667 55.466666-8.832 7.168-19.2 10.752-30.848 10.752-19.669333 0-31.573333-10.368-33.621333-29.141333l-0.384-5.76c3.584-23.125333 4.736-31.061333 5.546666-34.133333h-0.170666c1.024-4.096 23.424-93.866667 30.805333-119.168a974.08 974.08 0 0 1-52.650667 0.128z m475.178667 109.44l2.304-5.248c3.2-7.168 6.272-14.08 6.656-23.637334a123.178667 123.178667 0 0 0-48.725333-10.624c-61.098667 0-106.624 53.333333-106.624 100.992 0 17.024 6.016 31.317333 17.408 41.557334 19.2 17.28 52.522667 22.229333 96.512 14.208 6.656-7.296 9.344-19.456 12.16-32.085334l0.256-1.152c-0.512 0.128-1.024 0.128-1.408 0.256a194.261333 194.261333 0 0 1-35.541334 4.48c-16.213333 0-26.88-4.608-32.213333-13.952-7.552-18.773333-5.888-37.077333 4.309333-52.309333 16.512-24.277333 52.565333-34.261333 84.906667-22.485333z m154.794667 116.053333c3.84-23.381333 7.936-47.146667 17.792-90.88 4.48-20.309333 9.216-40.618667 14.08-60.714667-22.144 4.224-30.592 5.504-52.437334 8.832l-2.133333 0.384-2.986667 22.357334-7.168-13.653334a35.498667 35.498667 0 0 0-19.285333-17.28 21.546667 21.546667 0 0 0-7.68-1.152c-12.245333 0-33.493333 6.4-53.162667 24.32-14.08 12.885333-23.296 31.061333-29.269333 56.874667-8.704 37.077333-1.536 59.562667 21.973333 68.906667 9.088 3.84 17.621333 5.504 27.221334 5.504h2.816c9.813333-0.512 19.968-5.76 30.933333-15.872l12.288-11.264-6.4 24.832c21.205333-1.28 29.653333-1.28 53.418667-1.152zM616.106667 425.813333c-5.504 7.808-17.92 12.8-26.325334 12.8-8.704 0-18.048-5.632-18.432-21.504-0.128-8.704 1.706667-17.493333 3.84-27.477333 6.272-26.581333 14.208-52.565333 36.437334-52.565333 6.272 0 11.648 2.56 15.488 7.296 6.741333 8.448 8.021333 22.869333 3.712 42.069333l-0.426667 1.664c-3.285333 13.141333-7.893333 29.397333-14.293333 37.717333z m231.893333 170.24l8.448-27.818666h-5.632c-6.4 0-10.496-1.28-13.056-4.096a9.898667 9.898667 0 0 1-2.56-7.296l-0.469333-17.664h-51.925334l1.024 37.589333a16 16 0 0 0 4.096 12.288c5.376 5.632 15.573333 8.064 29.781334 7.168l30.293333-0.128z m-70.954667-56.746666c-49.322667 1.152-83.456 2.986667-91.136 4.992-13.653333 3.584-28.629333 14.208-28.757333 14.336l-12.544 9.088 8.533333-28.672h-47.530666l-11.093334 37.12-62.293333 206.421333h-11.861333l-8.576 27.52h116.736l-3.968 12.885333h46.250666l3.84-12.885333h16.128l9.301334-30.592h-16.085334l63.573334-210.133333h20.053333l9.429333-30.08z m-138.666666 240.64h-57.813334l16.768-55.381334h57.6l-16.597333 55.338667z m26.197333-87.082667l-3.456 0.384c-0.128 0-14.464 1.792-23.552 3.968-8.661333 2.56-25.813333 11.349333-26.026667 11.52l-11.050666 5.589333 20.736-68.650666h57.770666l-14.421333 47.189333z m23.125333-76.074667l-3.712 0.256a146.346667 146.346667 0 0 0-23.04 3.328c-8.96 2.432-25.813333 9.984-25.941333 10.112l-10.581333 4.693334 20.053333-65.792h57.514667l-14.293334 47.402666z m74.666667 0.768l-8.448 27.989334h67.498667l-13.184 41.813333h-68.010667l-6.997333 23.637333h62.634666l-50.901333 71.978667a23.722667 23.722667 0 0 1-11.52 9.472 32.085333 32.085333 0 0 1-14.165333 3.84h-12.672l-8.149334 26.965333h36.138667c17.792 0 30.592-6.656 41.429333-21.461333l38.4-52.821333 8.661334 55.765333c1.152 6.997333 6.912 10.069333 8.064 10.709333 1.28 0.64 2.56 1.28 3.84 2.048 3.029333 1.792 5.973333 3.456 9.429333 3.712 6.4 0.426667 11.093333 0.512 14.464 0.512h17.237333l9.472-31.317333h-0.853333c-5.546667 0-15.232-0.512-18.56-4.096a19.242667 19.242667 0 0 1-3.072-8.832l-6.528-41.386667h-34.389333l20.949333-25.088h66.602667l7.168-23.637333h-62.890667l13.184-41.813333h62.634667l8.533333-27.989334h-176z m-593.194667 10.368l-8.192 26.965334h35.669334l-12.629334 42.666666h-36.053333l-8.704 28.928h35.797333l-23.04 75.946667c-1.493333 5.248-0.213333 7.168 1.92 10.325333l1.408 2.176c2.304 3.328 3.968 4.992 8.32 6.144 6.144 1.408 9.984 2.176 15.232 2.176h68.778667l9.301333-31.317333-24.021333 3.413333c-10.112 0-22.101333-1.109333-26.069333-6.485333a7.68 7.68 0 0 1-1.152-7.04l16.725333-55.722667h64.426667l8.576-28.373333H230.869333l13.056-42.666667h63.146667l8.32-27.008-146.261333-0.128z m53.333334-29.013333l11.52-9.856h86.272l8.661333-28.757333H262.442667l11.392-21.504H221.312l-14.72 26.752c-4.096 7.509333-7.68 11.989333-11.52 14.293333-3.072 2.048-8.021333 3.072-17.237333 3.072H173.226667l-8.192 27.221333h21.12c13.141333 0 23.381333-5.205333 26.709333-6.869333 2.688-1.408 4.693333-1.92 6.144-2.304 1.792-0.64 2.133333-0.768 3.413333-2.048z m259.242666 85.248c5.248-0.512 11.52-2.688 18.773334-6.4a33.536 33.536 0 0 0 13.056-11.989333c1.92-2.816 8.32-12.544 14.08-32.341334l28.373333-94.378666-81.92 0.426666c0.213333 0-26.368 4.053333-37.888 8.277334-11.093333 4.608-27.861333 17.92-28.117333 18.048l-5.973334 4.693333h98.56l-9.728 32.256H472.32c-27.477333 0-33.109333 0.768-34.133333 0.853333-28.629333 4.864-45.226667 19.84-45.397334 19.968l-8.021333 7.424h97.152l-8.533333 26.197334-2.730667 2.133333-2.432 0.170667c-0.384 0-0.853333 0-1.536-0.128-1.28-0.128-3.968-0.512-9.173333 0.256H371.498667l25.813333-85.290667-2.304 1.792 10.666667-36.949333H361.386667l-76.032 252.373333c-2.176 7.936-4.352 16-4.736 20.309333 0 1.28 4.48 5.248 6.4 6.826667l1.664 1.365333c2.005333 1.536 6.101333 1.792 10.581333 1.92 1.408 0 2.816 0.128 4.352 0.256 6.656 0.64 16.384 0.896 29.653333 0.896h38.485334l9.6-32.597333-30.037334 2.816a15.232 15.232 0 0 1-13.056-6.528c-2.816-3.712-1.536-8.32 0.768-16.64l0.426667-1.365333 25.386667-84.010667h89.898666c13.269333 0 21.589333-0.256 26.965334-0.64z m30.165334 18.432h-31.701334l-4.096 13.269333a16.554667 16.554667 0 0 1-5.248 8.192 22.016 22.016 0 0 1-12.501333 2.816h-18.56l0.768-21.973333H397.696l-2.048 101.973333c-0.128 7.424 0.768 9.216 3.84 11.136 5.376 4.266667 30.421333 4.266667 43.861333 4.266667h29.653334l8.533333-29.056-32.298667 1.792-1.024-0.384a15.061333 15.061333 0 0 1-6.016-3.712c-3.413333-1.92-4.693333-5.376-4.48-12.288l0.256-32.213333 35.669334-1.408c15.488 0 21.248-4.821333 26.453333-9.301334 4.48-3.84 6.144-8.576 8.192-15.616l3.584-17.493333z m434.645333-128.853333l17.92-41.045334 50.858667-160.213333c4.48-15.957333 7.168-28.117333 7.808-35.925333 1.152-13.781333-1.664-24.661333-8.704-33.237334-6.656-8.149333-24.533333-13.141333-38.101334-13.781333a73.216 73.216 0 0 0-29.397333 4.608c-9.429333 3.584-20.181333 9.813333-31.701333 18.517333l-12.501334 9.472 29.866667-106.24-38.570667-1.664-73.770666 263.466667 38.613333 1.706667 20.821333-74.666667c6.912-24.96 12.16-40.533333 15.872-47.445333a91.733333 91.733333 0 0 1 26.709334-31.317334c8.533333-6.272 17.365333-9.472 26.325333-9.472h1.536c8.064 0.384 14.464 3.2 18.773333 8.533334a26.453333 26.453333 0 0 1 5.546667 20.096 217.984 217.984 0 0 1-5.888 25.685333l-55.765333 170.538667-11.605334 18.944c-2.176 2.944-4.352 5.504-7.936 6.528a25.301333 25.301333 0 0 1-10.496 1.664h-3.584l-8.192 26.709333 31.488 0.512c19.669333-0.128 36.906667-8.704 44.074667-22.016z m-139.093333-220.586667c6.528 1.834667 13.184 3.754667 21.248 4.778667l7.765333-31.317334a125.482667 125.482667 0 0 0-45.354667-8.832c-38.997333 0-64.853333 19.925333-72.533333 38.485334-5.461333 13.269333-2.389333 26.581333 8.618667 37.461333 10.24 8.149333 19.541333 10.24 28.501333 12.245333 4.864 1.152 9.344 2.176 13.909333 4.096l1.706667 1.152c6.741333 7.168 6.485333 12.672 5.12 16-4.010667 9.173333-21.504 11.221333-48.981333 6.4 0.256-0.128 0.768 0.128-29.909334-5.248l-7.808 35.285334c17.749333 4.224 35.797333 6.485333 52.394667 6.485333 32.085333 0 56.149333-8.149333 67.626667-23.125333 8.32-10.88 10.24-25.429333 5.376-43.349334-4.096-7.125333-20.053333-15.957333-28.757334-19.925333l-1.024-0.256c-4.224-1.024-14.336-3.584-18.261333-11.093333a15.274667 15.274667 0 0 1-0.512-12.928c1.408-3.84 5.589333-10.368 18.389333-10.368 4.693333 0 8.704 0.896 8.832 0.896 4.352 0.64 8.96 1.92 13.653334 3.2zM391.338667 253.269333c-12.544-17.493333-38.869333-17.664-69.290667-17.92l-15.616 0.256c-33.493333 0.426667-50.602667 0.426667-59.818667-0.256l-0.896 4.096-14.464 67.626667c0 0.128-28.117333 115.84-34.986666 144.597333 12.757333-0.128 22.485333-0.256 29.866666-0.256 7.168 0 12.416 0.128 16 0.256 1.024-4.864 2.688-12.544 4.224-20.053333a260.266667 260.266667 0 0 1 5.12-22.613333l-0.426666-0.170667c7.168-29.781333 7.552-30.805333 7.68-31.146667l0.64-1.194666c0.512-0.64 2.986667-3.968 6.016-5.76l1.152-0.64h4.608c29.909333 0 63.658667 0 89.472-18.901334 17.408-13.056 29.44-32.213333 34.773333-55.594666 1.536-6.4 2.304-13.312 2.304-19.328 0-9.728-2.133333-17.365333-6.4-23.04zM347.221333 301.909333a54.613333 54.613333 0 0 1-28.16 37.12c-11.221333 5.589333-24.405333 5.973333-38.186666 5.973334h-14.464l1.792-9.216c11.52-50.090667 14.592-63.274667 15.488-66.858667l1.408-10.965333 10.837333 1.152 32.341333 2.816 1.536 0.384c14.933333 5.589333 21.504 20.693333 17.408 39.594666z" p-id="3414"></path></svg>